<svg xmlns="http://www.w3.org/2000/svg" width="407" height="240.653" viewBox="0 0 407 240.653">
  <g id="Group_2" data-name="Group 2" transform="translate(-702.5 -565.256)">
    <g id="Group_1" data-name="Group 1" transform="translate(-1191.5 -3060.245)">
      <path id="Path_1" data-name="Path 1" d="M361.833,161.758c-121.286.01,7.429,0-113.857.121-4.14,0-5.952-1.519-7.052-5.257-2.014-6.842-4.367-13.586-6.629-20.354-.355-1.063-.362-2.67-1.632-2.892-1.648-.288-2,1.471-2.627,2.552q-12.852,22.26-25.623,44.568c-1.2,2.106-2.435,3.889-5.106,4.249-4.966.671-7.4-1.232-8.208-6.843-1.752-12.187-3.419-24.387-5.147-36.578q-5.992-42.257-12.006-84.511c-.157-1.1.037-2.368-1.752-3.074-1.774,5.177-1.492,10.54-2.018,15.705Q161.819,151.4,153.815,233.4c-.323,3.267-1.113,5.914-5.027,6.22s-6.091-1.239-7.082-5.266c-6.444-26.171-13.053-52.3-19.647-78.435-.6-2.388-.816-4.926-2.4-7.338-3.208,2.459-4.5,6.118-6.194,9.342-1.507,2.863-3.176,3.954-6.5,3.941-35.652-.144-71.3-.1-106.956-.107V150.763c15.98.087,31.96.209,47.94.249,17.321.043,34.643-.13,51.961.116,3.938.056,6.084-1.255,7.784-4.63,2.314-4.6,5.161-8.925,7.592-13.468a6.661,6.661,0,0,1,7.369-3.858c3.386.44,4.534,2.851,5.27,5.81q7.886,31.724,15.879,63.418a10.913,10.913,0,0,0,2.177,4.743q1.506-14.822,3.011-29.642,8.354-83.19,16.666-166.382c.376-3.782.971-6.961,5.773-7.113,5.08-.161,5.808,3.174,6.362,7.11Q188.838,85.7,200.006,164.29c2.2-.033,2.326-1.873,3.005-3.046q12.381-21.369,24.646-42.8c1.633-2.854,3.3-5.589,7.171-5.063,3.648.5,4.441,3.507,5.394,6.418,2.844,8.688,6.03,17.273,8.572,26.045,1.191,4.112,3.117,5.309,7.322,5.293,44.634-.16,27.8-.11,99.746-.123,1.991,0-28.8.123,5.971.123" transform="translate(1921 3626)" fill="#ce6a85" stroke="rgba(0,0,0,0)" stroke-width="1"/>
      <rect id="Rectangle_10" data-name="Rectangle 10" width="139" height="12" rx="6" transform="translate(2162 3776)" fill="#ce6a85"/>
      <rect id="Rectangle_11" data-name="Rectangle 11" width="139" height="12" rx="6" transform="translate(1894 3776)" fill="#ce6a85"/>
    </g>
    <rect id="Rectangle_12" data-name="Rectangle 12" width="58" height="8" rx="4" transform="translate(874.315 696.421)" fill="#ce6a85"/>
  </g>
</svg>
